<svg width="76" height="100" viewBox="0 0 76 100" fill="none" xmlns="http://www.w3.org/2000/svg">
<path d="M75.0091 13.2918C75.0091 12.3852 74.8152 11.3716 73.823 11.0908L37.681 0H37.6782H37.6753L1.53336 11.0908C0.541179 11.3716 0.347305 12.3852 0.347305 13.2918C2.26752 32.1077 -4.11894 58.1511 5.37522 74.9611C10.7481 84.4553 23.263 94.36 33.3174 98.4813C35.2234 99.2639 36.4508 99.6018 37.5513 99.5946V99.6032C37.5927 99.606 37.6369 99.5975 37.6782 99.5989C37.7195 99.5989 37.7651 99.606 37.8051 99.6032V99.5946C38.9056 99.6003 40.133 99.2639 42.039 98.4813C52.0934 94.36 64.6097 84.4553 69.9812 74.9611C79.4753 58.1525 73.0889 32.1077 75.0091 13.2918Z" fill="#59AD46"/>
<path d="M72.9641 15.4159C72.9641 14.542 72.7817 13.6069 71.8465 13.3232L37.8015 2.89673L37.5977 2.95803V96.7179C38.7153 96.7991 39.9142 96.4741 41.9071 95.6616C51.3785 91.7798 63.1663 82.451 68.2285 73.5071C77.1709 57.6535 71.1551 33.1412 72.9641 15.4188V15.4159Z" fill="#43A046"/>
<path d="M48.2353 43.0631H23.4079V35.0529H53.9432L61.4031 27.4861L62.649 26.2458H14.8033C15.8511 27.4747 16.3771 28.0221 17.107 28.8375C19.04 30.9972 21.2225 32.9531 23.2041 35.0529L14.9059 35.2567L14.3984 35.2696V69.0637L23.4079 59.9829V51.8715H32.4174L22.7365 69.095H23.5091H38.9208C41.9358 66.2838 44.824 63.4313 47.9302 60.4747L53.3331 69.095L63.1494 69.0651L62.85 68.6032L48.2353 43.0645V43.0631ZM38.0227 60.0827L42.6286 51.8687C40.9792 51.8459 33.5863 51.6919 32.8222 51.6648L37.7162 43.2655L42.6272 51.8687C42.7455 51.9029 47.6237 60.0827 47.6237 60.0827H38.0212H38.0227Z" fill="white"/>
<mask id="mask0_642_3983" style="mask-type:luminance" maskUnits="userSpaceOnUse" x="14" y="26" width="50" height="44">
<path d="M48.2353 43.0631H23.4079V35.0529H53.9432L61.4031 27.4861L62.649 26.2458H14.8033C15.8511 27.4747 16.3771 28.0221 17.107 28.8375C19.04 30.9972 21.2225 32.9531 23.2041 35.0529L14.9059 35.2567L14.3984 35.2696V69.0637L23.4079 59.9829V51.8715H32.4174L22.7365 69.095H23.5091H38.9208C41.9358 66.2838 44.824 63.4313 47.9302 60.4747L53.3331 69.095L63.1494 69.0651L62.85 68.6032L48.2353 43.0645V43.0631ZM38.0227 60.0827L42.6286 51.8687C40.9792 51.8459 33.5863 51.6919 32.8222 51.6648L37.7162 43.2655L42.6272 51.8687C42.7455 51.9029 47.6237 60.0827 47.6237 60.0827H38.0212H38.0227Z" fill="white"/>
</mask>
<g mask="url(#mask0_642_3983)">
<path d="M66.9128 19.3662H37.5664V77.8038H66.9128V19.3662Z" fill="#DCEDD4"/>
</g>
</svg>
