<svg width="216" height="100" viewBox="0 0 216 100" fill="none" xmlns="http://www.w3.org/2000/svg">
<path d="M75.0091 13.2918C75.0091 12.3852 74.8152 11.3716 73.823 11.0908L37.681 0H37.6782H37.6753L1.53336 11.0908C0.541179 11.3716 0.347305 12.3852 0.347305 13.2918C2.26752 32.1077 -4.11894 58.1511 5.37522 74.9611C10.7481 84.4553 23.263 94.36 33.3174 98.4813C35.2234 99.2639 36.4508 99.6018 37.5513 99.5946V99.6032C37.5927 99.6061 37.6369 99.5975 37.6782 99.5989C37.7195 99.5989 37.7651 99.6061 37.8051 99.6032V99.5946C38.9056 99.6003 40.133 99.2639 42.039 98.4813C52.0934 94.36 64.6097 84.4553 69.9812 74.9611C79.4753 58.1525 73.0889 32.1077 75.0091 13.2918Z" fill="#59AD46"/>
<path d="M72.9641 15.4159C72.9641 14.542 72.7817 13.6069 71.8465 13.3232L37.8015 2.89673L37.5977 2.95803V96.7179C38.7153 96.7991 39.9142 96.4741 41.9071 95.6615C51.3785 91.7798 63.1663 82.451 68.2285 73.5071C77.1709 57.6535 71.1551 33.1412 72.9641 15.4188V15.4159Z" fill="#43A046"/>
<path d="M88.0091 42.9603V21.4499H103.681V25.752H92.6185V30.976H101.223V35.1244H92.6185V42.9603H88.0091ZM106.281 34.5098V21.4499H110.89V34.5098C110.89 37.4598 112.703 39.2728 115.5 39.2728C118.296 39.2728 120.109 37.4598 120.109 34.5098V21.4499H124.718V34.5098C124.718 40.0411 121.154 43.5749 115.5 43.5749C109.846 43.5749 106.281 40.0411 106.281 34.5098ZM128.551 42.9603V21.4499H134.543L142.994 36.6608H143.301L142.994 34.0489V21.4499H147.603V42.9603H141.611L133.161 27.7494H132.853L133.161 30.3614V42.9603H128.551ZM151.598 42.9603V21.4499H159.434C166.348 21.4499 171.111 26.2129 171.111 32.2051C171.111 38.1973 166.348 42.9603 159.434 42.9603H151.598ZM156.207 38.6582H159.434C163.736 38.6582 166.348 36.0463 166.348 32.2051C166.348 28.364 163.736 25.752 159.434 25.752H156.207V38.6582ZM174.195 42.9603V21.4499H190.328V25.752H178.804V30.0541H188.023V34.0489H178.804V38.6582H190.328V42.9603H174.195ZM193.551 42.9603V21.4499H201.387C208.301 21.4499 213.064 26.2129 213.064 32.2051C213.064 38.1973 208.301 42.9603 201.387 42.9603H193.551ZM198.16 38.6582H201.387C205.689 38.6582 208.301 36.0463 208.301 32.2051C208.301 28.364 205.689 25.752 201.387 25.752H198.16V38.6582Z" fill="white"/>
<path d="M88.013 69.8977L93.6979 48.3873H103.378L109.062 69.8977H104.299L103.07 65.1347H94.0052L92.776 69.8977H88.013ZM95.0807 60.8326H101.995L99.8437 52.6894H97.2318L95.0807 60.8326ZM111.223 69.8977V48.3873H121.364C126.618 48.3873 129.814 51.6139 129.814 55.6086C129.814 58.9581 127.663 61.1706 124.898 62.2154L129.814 69.8977H124.59L120.135 62.83H115.833V69.8977H111.223ZM115.833 58.5279H121.21C123.822 58.5279 125.051 57.3295 125.051 55.6086C125.051 53.8878 123.822 52.6894 121.21 52.6894H115.833V58.5279ZM132.89 69.8977V48.3873H139.804L145.028 60.679H145.796L151.02 48.3873H157.934V69.8977H153.324V56.2232L153.632 53.4576H153.324L148.408 64.981H142.416L137.499 53.4576H137.192L137.499 56.2232V69.8977H132.89ZM159.637 48.3873H164.707L169.87 57.2987H170.3L175.463 48.3873H180.533L172.39 62.0618V69.8977H167.78V62.0618L159.637 48.3873Z" fill="white"/>
<path d="M87.7257 81.2327V75.8151H90.5119C91.6263 75.8151 92.2532 76.4343 92.2532 77.2082C92.2532 77.6726 92.0365 77.9589 91.8275 78.1215C91.696 78.2143 91.5567 78.284 91.4019 78.3304V78.3691C91.5954 78.4078 91.7656 78.4852 91.9204 78.5858C92.1913 78.7638 92.4467 79.0889 92.4467 79.6461C92.4467 80.5361 91.7502 81.2327 90.4732 81.2327H87.7257ZM88.8866 77.9435H90.3571C90.8214 77.9435 91.0536 77.7113 91.0536 77.4017C91.0536 77.0921 90.8214 76.86 90.3571 76.86H88.8866V77.9435ZM88.8866 80.1879H90.3958C90.984 80.1879 91.2471 79.917 91.2471 79.5687C91.2471 79.2204 90.984 78.9496 90.3958 78.9496H88.8866V80.1879ZM92.7947 77.2856H93.9169L94.6908 80.3039H95.0004L95.8517 77.2856H96.9739L95.3873 82.7031H94.2651L94.6908 81.2327H93.8395L92.7947 77.2856ZM99.335 79.53H100.535C100.581 79.6848 100.658 79.8241 100.759 79.9402C100.937 80.1492 101.247 80.3426 101.773 80.3426C102.508 80.3426 102.779 80.0718 102.779 79.7235C102.779 79.2437 101.982 79.0889 101.177 78.8799C100.364 78.6864 99.5672 78.2917 99.5672 77.3243C99.5672 76.4343 100.341 75.6604 101.657 75.6604C102.663 75.6604 103.22 76.086 103.53 76.4962C103.708 76.7439 103.832 77.0225 103.901 77.3243H102.702C102.671 77.2082 102.609 77.1076 102.524 77.0147C102.377 76.86 102.121 76.7052 101.657 76.7052C101.038 76.7052 100.767 76.976 100.767 77.2856C100.767 77.6494 101.216 77.8351 101.788 77.9667C102.717 78.1911 103.979 78.462 103.979 79.6848C103.979 80.5903 103.228 81.3875 101.773 81.3875C100.713 81.3875 100.078 80.9308 99.7529 80.4587C99.5517 80.1879 99.4124 79.8783 99.335 79.53ZM104.483 79.2591C104.483 77.9822 105.295 77.1695 106.302 77.1695C106.735 77.1695 107.029 77.3243 107.238 77.4791C107.354 77.572 107.455 77.6726 107.54 77.7887H107.579V77.2856H108.662V81.2327H107.579V80.7296H107.54C107.455 80.8457 107.354 80.9463 107.238 81.0392C107.029 81.194 106.735 81.3488 106.302 81.3488C105.295 81.3488 104.483 80.5361 104.483 79.2591ZM105.605 79.2591C105.605 80.0021 106.023 80.42 106.572 80.42C107.161 80.42 107.579 80.0021 107.579 79.2591C107.579 78.5162 107.161 78.0982 106.572 78.0982C106.023 78.0982 105.605 78.5162 105.605 79.2591ZM109.281 79.2591C109.281 78.0982 110.202 77.1695 111.41 77.1695C112.253 77.1695 112.764 77.5488 113.05 77.9435C113.221 78.1679 113.344 78.431 113.422 78.7174H112.3C112.253 78.6013 112.191 78.5007 112.114 78.4078C111.967 78.253 111.758 78.0982 111.41 78.0982C110.876 78.0982 110.403 78.5626 110.403 79.2591C110.403 79.9557 110.876 80.42 111.41 80.42C111.758 80.42 111.967 80.2653 112.114 80.1105C112.191 80.0176 112.253 79.917 112.3 79.8009H113.422C113.352 80.0872 113.236 80.3504 113.066 80.5748C112.779 80.9695 112.276 81.3488 111.41 81.3488C110.202 81.3488 109.281 80.42 109.281 79.2591ZM114.041 81.2327V75.8151H115.124V77.8274H115.163C115.232 77.7035 115.333 77.5952 115.449 77.5023C115.658 77.3398 115.944 77.1695 116.401 77.1695C117.368 77.1695 117.949 77.7422 117.949 78.8335V81.2327H116.865V78.9883C116.865 78.4001 116.556 78.0982 116.053 78.0982C115.55 78.0982 115.124 78.5239 115.124 79.1431V81.2327H114.041ZM118.687 76.2021C118.687 75.8925 118.958 75.6217 119.306 75.6217C119.654 75.6217 119.925 75.8925 119.925 76.2021C119.925 76.5117 119.654 76.7826 119.306 76.7826C118.958 76.7826 118.687 76.5117 118.687 76.2021ZM118.764 81.2327V77.2856H119.848V81.2327H118.764ZM120.699 81.2327V77.2856H121.783V77.8274H121.821C121.891 77.7035 121.992 77.5952 122.108 77.5023C122.317 77.3398 122.603 77.1695 123.06 77.1695C124.027 77.1695 124.607 77.7422 124.607 78.8335V81.2327H123.524V78.9883C123.524 78.4001 123.214 78.0982 122.711 78.0982C122.208 78.0982 121.783 78.5239 121.783 79.1431V81.2327H120.699ZM127.669 81.2327V75.8151H130.223C131.547 75.8151 132.352 76.6278 132.352 77.6339C132.352 78.4775 131.81 79.0347 131.113 79.2978L132.352 81.2327H131.036L129.914 79.4526H128.83V81.2327H127.669ZM128.83 78.3691H130.185C130.842 78.3691 131.152 78.0673 131.152 77.6339C131.152 77.2005 130.842 76.8987 130.185 76.8987H128.83V78.3691ZM132.704 79.2591C132.704 77.9822 133.517 77.1695 134.523 77.1695C134.956 77.1695 135.25 77.3243 135.459 77.4791C135.575 77.572 135.676 77.6726 135.761 77.7887H135.8V77.2856H136.883V81.2327H135.8V80.7296H135.761C135.676 80.8457 135.575 80.9463 135.459 81.0392C135.25 81.194 134.956 81.3488 134.523 81.3488C133.517 81.3488 132.704 80.5361 132.704 79.2591ZM133.826 79.2591C133.826 80.0021 134.244 80.42 134.794 80.42C135.382 80.42 135.8 80.0021 135.8 79.2591C135.8 78.5162 135.382 78.0982 134.794 78.0982C134.244 78.0982 133.826 78.5162 133.826 79.2591ZM137.502 79.2591C137.502 78.0982 138.423 77.1695 139.67 77.1695C140.9 77.1695 141.837 78.0982 141.837 79.2591C141.837 80.42 140.9 81.3488 139.67 81.3488C138.423 81.3488 137.502 80.42 137.502 79.2591ZM138.625 79.2591C138.625 79.9557 139.089 80.42 139.67 80.42C140.25 80.42 140.714 79.9557 140.714 79.2591C140.714 78.5626 140.25 78.0982 139.67 78.0982C139.089 78.0982 138.625 78.5626 138.625 79.2591Z" fill="white"/>
<path d="M48.2353 43.0631H23.4079V35.0529H53.9432L61.4031 27.4861L62.649 26.2458H14.8033C15.8511 27.4747 16.3771 28.0221 17.107 28.8375C19.04 30.9972 21.2225 32.9531 23.2041 35.0529L14.9059 35.2567L14.3984 35.2696V69.0637L23.4079 59.9829V51.8715H32.4174L22.7365 69.095H23.5091H38.9208C41.9358 66.2838 44.824 63.4313 47.9302 60.4747L53.3331 69.095L63.1494 69.0651L62.85 68.6032L48.2353 43.0645V43.0631ZM38.0227 60.0827L42.6286 51.8687C40.9792 51.8459 33.5863 51.6919 32.8222 51.6648L37.7162 43.2655L42.6272 51.8687C42.7455 51.9029 47.6237 60.0827 47.6237 60.0827H38.0212H38.0227Z" fill="white"/>
<mask id="mask0_643_4010" style="mask-type:luminance" maskUnits="userSpaceOnUse" x="14" y="26" width="50" height="44">
<path d="M48.2353 43.0631H23.4079V35.0529H53.9432L61.4031 27.4861L62.649 26.2458H14.8033C15.8511 27.4747 16.3771 28.0221 17.107 28.8375C19.04 30.9972 21.2225 32.9531 23.2041 35.0529L14.9059 35.2567L14.3984 35.2696V69.0637L23.4079 59.9829V51.8715H32.4174L22.7365 69.095H23.5091H38.9208C41.9358 66.2838 44.824 63.4313 47.9302 60.4747L53.3331 69.095L63.1494 69.0651L62.85 68.6032L48.2353 43.0645V43.0631ZM38.0227 60.0827L42.6286 51.8687C40.9792 51.8459 33.5863 51.6919 32.8222 51.6648L37.7162 43.2655L42.6272 51.8687C42.7455 51.9029 47.6237 60.0827 47.6237 60.0827H38.0212H38.0227Z" fill="white"/>
</mask>
<g mask="url(#mask0_643_4010)">
<path d="M66.9128 19.3662H37.5664V77.8038H66.9128V19.3662Z" fill="#DCEDD4"/>
</g>
</svg>
