<svg width="233" height="82" viewBox="0 0 233 82" fill="none" xmlns="http://www.w3.org/2000/svg">
<path d="M232.467 17.0149C230.259 10.3125 222.604 9.87535 216.568 10.0211C210.532 10.1668 214.801 10.0211 214.065 10.0211C213.329 10.0211 212.151 10.021 211.415 10.3125C210.974 10.4582 210.826 11.041 210.679 11.4781C210.385 13.6637 210.09 15.8492 210.09 18.0348C210.09 18.4719 210.09 19.6375 210.679 19.6375H216.715C217.598 19.6375 217.451 17.7434 217.451 17.452C217.598 16.8691 220.543 17.0148 221.132 17.1605C222.751 17.3063 224.223 17.8891 224.959 19.3461C225.695 20.8032 225.548 22.2602 225.401 23.5715C225.254 24.8829 225.401 24.8829 225.106 25.4657C224.959 26.6313 224.665 27.6513 224.37 28.6712C224.076 29.5454 223.634 30.4197 222.898 31.0025C222.162 31.5853 222.309 31.4396 221.868 31.5853C220.101 32.4595 218.04 32.1681 216.126 32.1681C214.212 32.1681 216.273 28.3798 216.421 27.9427C216.421 26.777 216.715 25.6114 216.862 24.5915C217.009 23.5715 217.157 22.4059 216.862 21.5317C216.568 20.8032 215.832 21.0946 215.243 21.0946H213.623C212.74 21.0946 211.857 20.9489 210.974 21.0946C210.09 21.2403 209.649 22.1145 209.501 22.9887L209.207 25.0286L208.618 31.0025L208.029 36.3935V37.9963C207.882 38.2877 208.324 38.8705 208.618 38.8705C209.649 39.1619 214.948 38.8705 216.421 38.8705C225.842 38.5791 230.553 36.2478 232.32 26.6313C232.32 26.4856 232.32 26.3399 232.32 26.1942C232.32 26.1942 232.32 26.3399 232.32 26.6313C232.909 23.2801 233.498 19.9289 232.32 16.5777L232.467 17.0149Z" fill="#82E95F"/>
<path d="M134.316 61.1259C134.316 61.1259 134.616 61.1259 134.766 61.1259C142.272 58.1054 143.623 45.5701 135.366 42.8515C132.664 41.9454 123.356 41.7943 120.354 42.2474C120.053 42.2474 119.153 42.5495 118.852 42.8515C118.552 43.1536 117.802 50.4029 117.802 51.4601C117.802 52.9704 117.201 54.3297 118.852 54.4807C119.903 54.4807 123.957 54.4807 124.707 54.1787C125.608 53.7256 125.308 49.4968 125.758 49.3457C128.761 49.3457 134.916 48.4396 133.265 53.4235C132.064 56.8972 126.509 55.6889 123.506 55.8399C122.455 55.8399 121.254 56.142 120.354 56.2931C119.603 56.2931 117.501 56.7461 117.351 57.5013C116.901 62.1831 116.3 66.714 116 71.3959C116 71.5469 116.45 72 116.45 72H122.606C122.606 72 123.206 71.698 123.206 71.5469C123.656 70.9428 123.807 65.6568 123.957 64.2975C123.957 63.9955 124.257 62.4852 124.257 62.3342C124.858 62.3342 125.608 62.1831 126.059 62.6362L131.163 71.6979C131.463 71.849 137.018 71.849 137.768 71.6979C138.369 71.6979 138.669 71.3959 138.969 70.7918C138.969 69.2815 133.865 61.277 134.316 60.6729V61.1259Z" fill="#82E95F"/>
<path d="M107.716 42.3407L111 56.2706C111 57.4819 109.955 57.6333 109.06 57.9361C108.164 58.2389 104.731 59.2988 104.433 59.1474C103.985 58.8446 103.388 54.4536 102.94 53.3937C102.493 52.3338 102.94 52.9395 102.642 52.9395L99.5075 60.3587C99.209 60.6615 92.6418 62.7813 91.8955 62.9327C91.1493 63.0841 91.2985 62.9327 91 62.9327L100.254 42.3407C100.851 41.8864 107.119 41.8864 107.567 42.3407H107.716Z" fill="#82E95F"/>
<path d="M105.085 66.7167H97.0635C96.3343 67.0193 95.605 71.4072 94.1466 71.7098C92.6881 72.0125 88.3126 71.8611 87.7292 71.7098C87.1458 71.5585 87 71.2559 87 70.9533C87 70.6507 88.896 66.2628 89.1877 65.9602C89.4794 65.6575 89.6253 65.5062 89.9169 65.3549L110.336 59C110.773 59 111.065 59.1513 111.211 59.6052C111.648 63.0853 112.815 66.2628 113.544 69.7429C114.273 73.2229 114.128 71.5585 113.107 71.8612C112.086 72.1638 106.689 71.8612 106.398 71.8612C105.523 71.4072 105.523 67.9271 105.085 66.868V66.7167Z" fill="#82E95F"/>
<path d="M108.459 10.3259C109.351 10.6136 108.905 13.2029 108.756 14.0661C108.607 14.9292 108.756 16.3677 107.715 17.087H95.8115C95.2164 17.9501 95.8115 19.2448 94.9188 19.6763C94.026 20.1079 88.9671 20.1079 88.372 19.6763C87.7768 19.2448 88.0744 19.2448 88.0744 18.9571C88.6695 16.6554 88.2232 13.3468 88.9671 11.189C89.7111 9.03119 89.2647 10.4697 89.5623 10.4697H108.607L108.459 10.3259Z" fill="#82E95F"/>
<path d="M193.478 32.5388C193.478 32.5388 193.478 28.2212 194.222 27.9234C197.2 27.9234 200.922 27.9234 203.602 27.9234C206.281 27.9234 204.495 27.6256 204.793 26.8812C204.942 26.4346 204.942 25.9879 205.09 25.5413C205.09 24.7969 205.09 24.2013 205.239 23.4569C205.388 22.7125 205.239 22.8614 205.239 22.4147C205.239 21.9681 205.239 21.6703 204.942 21.2237C204.644 20.7771 204.197 20.9259 203.75 20.9259H193.18C192.287 20.9259 191.393 20.9259 190.351 20.9259C189.756 20.9259 189.309 20.9259 188.713 20.9259C188.118 20.9259 187.373 21.3726 187.076 21.9681C186.778 22.5636 186.778 23.4569 186.629 24.2013C186.629 24.9458 186.629 25.6902 186.48 26.4346C186.033 30.4544 185.587 34.6231 185.289 38.6429C185.587 38.9407 185.885 39.3873 186.331 39.3873C191.542 39.3873 204.495 39.3873 204.942 38.9407C205.537 38.494 205.537 37.303 205.537 36.7075C205.537 35.6653 205.835 34.6231 205.835 33.5809C205.835 33.5809 205.835 33.2832 205.835 33.1343C205.835 32.9854 205.537 32.8365 205.388 32.6876C205.239 32.5387 204.942 32.3899 204.644 32.3899C204.197 32.3899 203.75 32.3899 203.453 32.3899C202.559 32.3899 201.666 32.3899 200.773 32.3899C198.837 32.3899 197.051 32.3899 195.115 32.5388C193.18 32.6876 194.222 32.5388 193.775 32.5388C193.329 32.5388 193.329 32.5388 193.18 32.5388H193.478Z" fill="#82E95F"/>
<path d="M207.026 9.75949C202.857 9.75949 197.795 9.75949 193.924 9.75949C190.053 9.75949 188.713 9.31285 188.267 10.9506C187.969 13.1838 187.671 15.417 187.522 17.5014C187.522 18.2458 187.224 19.4369 188.118 19.5857C189.607 19.8835 192.584 19.5857 194.222 19.5857C195.86 19.5857 195.115 16.9058 195.264 16.9058C195.86 16.9058 204.197 16.9058 205.686 16.9058C207.175 16.9058 207.77 16.6081 207.919 15.7148C208.217 14.226 208.217 12.7371 208.366 10.9506C208.366 10.0573 207.77 9.75949 206.877 9.75949H207.026Z" fill="#82E95F"/>
<path d="M104.922 21.6196C104.922 21.4647 104.496 21 104.496 21H88.8455C88.8455 21 87.8496 21.6196 87.7073 21.7745C87.565 22.2392 87.565 24.0981 87.4227 24.8726C86.8536 29.5197 86.5691 34.1668 86 38.9688C86 39.2786 86.2845 39.5884 86.4268 39.7433C86.8536 40.0531 90.9796 40.0532 91.691 39.8983C92.6869 39.8983 93.1137 39.2786 93.256 38.1943C93.5405 36.3355 93.9674 32.1531 93.9674 30.2942C94.5365 29.8295 93.9674 28.5903 94.5365 28.2805C97.2397 27.9707 100.37 28.5903 103.073 28.2805C103.357 28.2805 104.211 27.9707 104.353 27.8158C104.638 27.506 105.207 22.2392 104.922 21.6196Z" fill="#82E95F"/>
<path d="M131.517 9.33549C130.478 9.33549 126.473 9.18329 125.879 9.94435C125.286 10.7054 124.989 17.7071 124.841 19.2292C124.544 21.3601 124.396 23.6433 124.099 25.7743C123.802 28.2096 123.506 32.1671 120.687 32.7759C117.72 33.3848 115.643 32.4715 115.643 29.1229C115.643 27.1441 116.088 23.9477 116.236 21.8168C116.533 18.3159 117.423 14.6629 117.572 11.162C117.572 8.57445 116.236 9.03107 114.605 9.03107C113.269 9.03107 110.599 8.87888 110.154 10.401C109.857 11.7709 109.561 13.9018 109.412 15.7284L108.077 28.514C106.594 43.1263 126.918 43.5829 130.478 31.1016C131.22 28.5141 131.22 25.7742 131.517 23.0345C131.962 18.9248 132.555 14.6629 133 10.401C133 9.48772 132.11 9.18329 131.368 9.18329L131.517 9.33549Z" fill="#82E95F"/>
<path d="M172.514 56.9239C172.959 52.5076 173.851 47.6345 174 43.3706C174 43.066 173.851 42.1522 173.405 42.1522H167.311C166.865 42.1522 166.27 43.2183 166.122 43.5228C164.041 46.264 162.405 49.6142 160.473 52.3553C160.027 53.1167 159.432 53.7259 158.986 54.4873C158.986 54.6396 157.946 56.7716 157.351 56.3147L150.811 42.3045C150.662 42 150.365 42 150.068 42C149.027 42 145.757 42 144.865 42C144.27 42 143.824 42.4568 143.676 43.066C143.23 47.1776 142.932 51.137 142.486 55.2487C142.041 59.8172 141.149 65.1472 141 69.7157C141 70.1726 141 72 141.595 72H147.689C147.838 72 148.432 71.2386 148.432 70.934C149.176 68.3452 149.027 64.2335 149.324 61.3401C149.324 61.3401 149.473 61.0355 149.622 60.731C149.622 59.8173 149.622 58.7513 149.77 57.8376L150.811 59.665L154.378 67.4315C154.824 68.0406 158.095 67.8883 158.689 67.4315C159.581 66.8223 162.554 61.1878 163.446 59.8172C163.743 59.3604 164.784 57.8376 165.23 57.8376C164.635 62.2538 164.041 66.67 163.892 71.0863C163.892 71.2386 164.338 71.6955 164.338 71.6955H170.432C170.73 71.6955 171.324 70.6295 171.473 70.1726C171.77 68.4975 171.919 65.2995 171.919 63.6244L172.514 56.9239C172.514 56.7716 172.514 56.6193 172.514 56.467V56.9239Z" fill="#82E95F"/>
<path d="M0.376033 10.3022L0.970366 8.22065C1.41609 7.7746 13.302 8.07196 13.8963 8.51801C14.4906 8.96406 15.0849 11.789 13.8963 12.2351C13.4506 14.0193 11.9648 14.168 11.5191 12.5325C9.29048 12.6811 6.91333 12.5325 4.68472 12.9785L5.72471 15.2088C4.83326 33.7942 8.39906 51.9336 21.6221 65.6124C23.5536 67.694 34.1024 76.4663 37.371 76.0203C43.0168 75.1282 56.537 61.3006 59.0628 56.2454L60.9943 55.3533C62.7772 54.7586 63.3714 56.2454 62.7771 59.6651C58.7656 66.9506 51.6341 73.4927 44.6511 77.9532C37.6681 82.4137 37.9653 83.3058 31.7252 80.0348C5.42756 65.9098 -1.40682 38.8494 0.227495 10.5996L0.376033 10.3022Z" fill="#309210"/>
<path d="M203 42.8636C203 42.2628 202.542 42.1126 201.931 42.1126C200.71 41.9625 196.588 41.9625 195.366 42.1126C194.908 42.1126 194.908 42.1127 194.603 42.413C193.839 43.0138 192.16 46.1677 191.396 47.2191C190.938 47.97 188.038 52.776 187.732 52.776L182.999 42.413C182.846 42.2628 182.541 42.2628 182.388 42.2628C181.167 42.1126 177.808 42.2628 176.587 42.2628C175.671 42.2628 174.755 42.5632 175.06 43.7647C176.587 47.5194 178.572 51.1239 180.251 54.8786C181.32 57.2816 182.846 60.1352 182.694 62.6884C182.694 65.0914 181.778 67.9449 181.778 70.4981C181.778 70.9487 181.778 72 182.388 72H188.648C189.412 72 189.564 70.6483 189.564 70.0475C190.022 67.4943 189.717 64.0401 190.328 61.4869C190.633 59.985 192.923 58.0325 193.381 56.3805C195.671 53.9775 198.114 49.622 200.099 46.9187C200.557 46.3179 202.847 43.6145 202.847 43.0138L203 42.8636Z" fill="#82E95F"/>
<path d="M180.024 11.6101C176.523 9.85227 167.695 9.85227 163.738 10.1452C162.216 10.1452 162.368 10.7312 162.064 12.0496C161.759 14.2469 161.759 16.7371 161.303 18.9344C161.303 19.5204 162.064 19.8133 162.52 19.9598C163.586 20.1063 166.782 19.9598 167.847 19.8133C169.37 19.5204 168.609 17.3231 169.217 17.1766C172.261 17.1766 176.219 16.7371 177.132 20.2528C177.437 21.7176 177.284 23.622 177.132 25.0868C176.828 27.4306 176.371 30.3603 174.088 31.6787C172.718 32.4112 171.5 32.4112 170.131 32.4112C168.761 32.4112 167.543 32.4112 167.543 32.4112C167.543 31.6787 168.456 24.9403 168.456 22.5966C168.456 20.3993 166.782 21.1317 165.412 21.1317C164.347 21.1317 161.455 20.8387 161.303 21.5712C160.846 24.0614 159.172 34.7549 159.019 38.1241C158.867 41.4933 159.628 39.296 160.542 39.296C165.108 39.589 173.784 39.589 177.741 37.5382C182.764 34.9014 183.981 30.6533 184.59 25.5263C185.351 20.1063 185.656 14.5398 179.872 11.6101H180.024Z" fill="#82E95F"/>
<path d="M33.5849 1.72369C34.7897 1.12689 35.5426 -0.365106 37.8014 0.0824901C39.1567 0.380888 40.0603 1.42529 41.265 2.17129C44.8792 4.55847 49.2463 6.19966 53.3122 7.09485C57.8299 8.13925 62.4981 7.84085 67.0158 7.84085H73.943C73.943 19.18 74.5453 30.519 71.8347 41.709C69.1241 52.8989 67.317 54.3909 63.4017 59.6128C63.4017 59.6128 63.1005 60.2096 61.8958 62V60.508C61.8958 59.4636 61.7452 58.5684 61.5946 55.2861L60.8417 53.9433C64.3053 46.9309 67.3171 39.471 68.3712 31.7127L69.5759 30.9667C69.1241 30.9667 68.3712 30.8175 68.3712 30.3699C67.9194 28.1319 68.07 15.8976 68.3712 13.0628L69.5759 12.1676C65.3594 14.8532 57.6793 13.6596 52.5593 12.6152C47.4392 11.5708 40.2109 9.03443 35.392 5.45366C33.5849 5.75205 32.2296 4.70765 33.7355 3.81246C32.3802 4.11086 33.2838 3.21567 33.4343 1.72369H33.5849Z" fill="#309210"/>
<path d="M33.2128 2C33.8085 3.1282 34.5532 4.53846 35 5.52564L34.4043 7.07693C28.1489 9.89744 22.0426 12.5769 15.0426 13L13.5532 12.0128C12.9575 11.3077 12.6596 9.05127 11.9149 8.91025C10.8723 8.62819 2.34043 15.5 1 15.5C-0.340425 15.5 0.297872 9.47436 0 10.1795C0 9.47436 0 8.62821 0 7.78206C12.3617 8.62821 22.1915 7.35897 33.2128 2Z" fill="#309210"/>
<path d="M159.254 10.1638C158.21 9.86896 152.989 9.86897 152.691 11.0483C152.691 11.3431 151.646 21.9571 151.497 22.3994C151.497 23.1365 151.348 24.021 151.348 24.758C151.05 24.4632 151.199 24.6106 150.602 23.7261L142.845 10.606C142.099 9.86897 137.624 9.86897 136.58 10.3112C136.282 10.3112 136.133 10.7535 135.834 10.9009C135.387 14.5863 135.088 18.2717 134.641 21.9571C134.343 24.0209 134.193 26.0848 134.044 28.2961C133.746 31.3918 133 35.2246 133 38.1729C133 39.0574 133.447 39.4997 134.193 39.6471C134.939 39.6471 139.116 39.6471 139.564 39.6471C140.906 39.0574 140.459 36.9936 140.608 35.8143V35.2246C140.906 33.0134 141.354 30.6547 141.503 28.4434C141.503 27.4115 141.801 26.8219 141.801 25.3477L150.304 39.6471C150.751 40.0893 155.376 40.0894 156.122 39.7945C157.017 39.4997 157.017 38.6152 157.166 37.7307C157.613 35.5195 159.851 13.2596 160 11.4906C160 10.9009 159.552 10.6061 159.105 10.4586L159.254 10.1638Z" fill="#82E95F"/>
<path d="M35.1127 5.23727C37.5012 4.19375 39.5912 6.87711 41.8304 7.77156C50.3396 11.6475 59.7444 12.8401 69 11.9456V30.729C69 36.692 64.0737 49.6615 60.9387 55.0282C57.3559 61.2893 52.131 67.2523 46.3089 71.5754C44.8161 72.6189 38.8448 76.644 37.5012 76.9421C35.4113 77.5384 28.9921 73.3643 27.0514 71.8736C7.64456 57.8606 2.86751 35.4994 4.21106 12.5419C6.45031 12.3929 8.68956 12.2438 10.9288 12.0947C11.6752 12.0947 12.5709 12.0947 13.4666 12.0947C23.6179 11.3493 26.4543 9.11322 34.9634 5.38636L35.1127 5.23727Z" fill="#CBCFCD"/>
<path d="M15.539 15L17.2024 16.0506C19.4706 22.3539 22.6461 28.2071 27.6362 32.8596L27.9386 34.8107L28.6946 36.1614C27.1825 39.3131 25.2167 42.0145 22.6461 44.5659C27.6361 41.2641 31.7189 37.0619 35.8017 32.5594L37.3139 33.0097C37.9187 36.7617 38.3723 40.5137 38.5236 44.4158L37.3139 45.4663L38.5236 46.0667C38.3723 50.419 38.3723 54.7713 38.5236 59.1237C42.6063 59.8741 46.6891 60.6245 50.6207 61.2248C51.9816 61.525 52.4353 62.2754 51.528 63.476C48.6549 66.4776 40.6406 74.4319 36.2553 73.9816C31.8701 73.5314 28.241 69.6293 26.8801 68.4287C10.549 55.3717 5.86133 35.2609 7.22225 15.1501C9.79289 15 12.666 15.4503 15.3878 15.1501L15.539 15Z" fill="#309210"/>
<path d="M16 14.8134C18.5148 14.5106 21.9171 13.7535 24.4319 13.1479C26.9467 12.5422 35.8225 8 36.4142 8C37.5976 8 44.4023 11.7852 46.6213 12.5423C48.8402 13.2993 55.2012 14.8134 57.1243 14.8134H66V31.9225C66 36.162 61.858 46.7606 59.9349 51C59.3432 51 55.3491 51 55.2012 51C53.574 49.6373 53.574 47.9718 55.645 48.5775C47.6568 41.3098 41.4438 32.2254 36.858 21.1725C34.9349 25.8662 32.8639 30.4085 29.9053 34.4965L28.2781 35.1021C22.3609 30.1056 18.2189 22.081 16 14.8134Z" fill="#58AA3C"/>
<path d="M49.2746 51.8479C51.6408 52.6014 54.1549 53.2042 56.669 53.6563C56.2254 52.4507 56.9648 52.1493 58 53.0535C55.338 57.7254 54.8944 58.7803 51.1972 63C49.5705 62.5479 38.1831 60.2873 37.4437 59.2324C36.7042 58.1775 37.1479 47.4775 37 44.9155C38.0352 43.5592 39.8099 43.7099 42.1761 45.3676C44.3944 46.4226 49.1268 49.5874 49.2746 51.8479Z" fill="#37801E"/>
<path d="M55.6532 48.4837C56.1028 48.7843 57.1521 49.3856 57.4519 49.536C59.4005 50.5882 58.5011 49.9869 60 51.0392C59.2505 52.0915 57.302 55.2484 56.8523 56C56.7024 56 56.5525 56 56.1029 55.549C53.8545 54.3464 51.9059 53.4444 49.5076 52.2418C45.4605 49.9869 41.7133 48.0327 37.0666 45.4771C37.0666 41.4183 36.9167 40.2157 37.0666 33L39.1651 33.451C44.2614 38.8627 49.8074 43.8235 55.6532 48.4837Z" fill="#37801E"/>
<path d="M56 48C48.4314 44.601 42.6793 38.6897 37.2299 32.7783C34.8079 35.2907 33.2942 37.064 31.0236 39.133C28.753 41.202 22.5468 46.0788 20.7303 46.67C18.9139 47.2611 18.7625 47.7045 19.2166 47.1133C20.2762 45.7833 24.3633 40.463 25.7256 38.3941C27.088 36.3251 27.6935 35.2907 28.1476 34.404C29.3585 32.6306 30.5695 30.7093 31.6291 28.7882C33.5969 25.2414 34.9593 21.5468 36.7758 18C40.7115 25.6847 44.0416 33.0739 49.3396 39.8719C50.702 41.6453 55.2431 46.67 55.8486 47.8523L56 48Z" fill="#CDD7D3"/>
<path d="M0.376033 10.3022L0.970366 8.22065C1.41609 7.7746 13.302 8.07196 13.8963 8.51801C14.4906 8.96406 15.0849 11.789 13.8963 12.2351C13.4506 14.0193 11.9648 14.168 11.5191 12.5325C9.29048 12.6811 6.91333 12.5325 4.68472 12.9785L5.72471 15.2088C4.83326 33.7942 8.39906 51.9336 21.6221 65.6124C23.5536 67.694 34.1024 76.4663 37.371 76.0203C43.0168 75.1282 56.537 61.3006 59.0628 56.2454L60.9943 55.3533C62.7772 54.7586 63.3714 56.2454 62.7771 59.6651C58.7656 66.9506 51.6341 73.4927 44.6511 77.9532C37.6681 82.4137 37.9653 83.3058 31.7252 80.0348C5.42756 65.9098 -1.40682 38.8494 0.227495 10.5996L0.376033 10.3022Z" fill="#309210"/>
<path d="M33.5849 1.72369C34.7897 1.12689 35.5426 -0.365106 37.8014 0.0824901C39.1567 0.380888 40.0603 1.42529 41.265 2.17129C44.8792 4.55847 49.2463 6.19966 53.3122 7.09485C57.8299 8.13925 62.4981 7.84085 67.0158 7.84085H73.943C73.943 19.18 74.5453 30.519 71.8347 41.709C69.1241 52.8989 67.317 54.3909 63.4017 59.6128C63.4017 59.6128 63.1005 60.2096 61.8958 62V60.508C61.8958 59.4636 61.7452 58.5684 61.5946 55.2861L60.8417 53.9433C64.3053 46.9309 67.3171 39.471 68.3712 31.7127L69.5759 30.9667C69.1241 30.9667 68.3712 30.8175 68.3712 30.3699C67.9194 28.1319 68.07 15.8976 68.3712 13.0628L69.5759 12.1676C65.3594 14.8532 57.6793 13.6596 52.5593 12.6152C47.4392 11.5708 40.2109 9.03443 35.392 5.45366C33.5849 5.75205 32.2296 4.70765 33.7355 3.81246C32.3802 4.11086 33.2838 3.21567 33.4343 1.72369H33.5849Z" fill="#309210"/>
<path d="M33.2128 2C33.8085 3.1282 34.5532 4.53846 35 5.52564L34.4043 7.07693C28.1489 9.89744 22.0426 12.5769 15.0426 13L13.5532 12.0128C12.9575 11.3077 12.6596 9.05127 11.9149 8.91025C10.8723 8.62819 2.34043 15.5 1 15.5C-0.340425 15.5 0.297872 9.47436 0 10.1795C0 9.47436 0 8.62821 0 7.78206C12.3617 8.62821 22.1915 7.35897 33.2128 2Z" fill="#309210"/>
<path d="M15.539 15L17.2024 16.0506C19.4706 22.3539 22.6461 28.2071 27.6362 32.8596L27.9386 34.8107L28.6946 36.1614C27.1825 39.3131 25.2167 42.0145 22.6461 44.5659C27.6361 41.2641 31.7189 37.0619 35.8017 32.5594L37.3139 33.0097C37.9187 36.7617 38.3723 40.5137 38.5236 44.4158L37.3139 45.4663L38.5236 46.0667C38.3723 50.419 38.3723 54.7713 38.5236 59.1237C42.6063 59.8741 46.6891 60.6245 50.6207 61.2248C51.9816 61.525 52.4353 62.2754 51.528 63.476C48.6549 66.4776 40.6406 74.4319 36.2553 73.9816C31.8701 73.5314 28.241 69.6293 26.8801 68.4287C10.549 55.3717 5.86133 35.2609 7.22225 15.1501C9.79289 15 12.666 15.4503 15.3878 15.1501L15.539 15Z" fill="#309210"/>
<path d="M16 14.8134C18.5148 14.5106 21.9171 13.7535 24.4319 13.1479C26.9467 12.5422 35.8225 8 36.4142 8C37.5976 8 44.4023 11.7852 46.6213 12.5423C48.8402 13.2993 55.2012 14.8134 57.1243 14.8134H66V31.9225C66 36.162 61.858 46.7606 59.9349 51C59.3432 51 55.3491 51 55.2012 51C53.574 49.6373 53.574 47.9718 55.645 48.5775C47.6568 41.3098 41.4438 32.2254 36.858 21.1725C34.9349 25.8662 32.8639 30.4085 29.9053 34.4965L28.2781 35.1021C22.3609 30.1056 18.2189 22.081 16 14.8134Z" fill="#58AA3C"/>
<path d="M56 48C48.4314 44.601 42.6793 38.6897 37.2299 32.7783C34.8079 35.2907 33.2942 37.064 31.0236 39.133C28.753 41.202 22.5468 46.0788 20.7303 46.67C18.9139 47.2611 18.7625 47.7045 19.2166 47.1133C20.2762 45.7833 24.3633 40.463 25.7256 38.3941C27.088 36.3251 27.6935 35.2907 28.1476 34.404C29.3585 32.6306 30.5695 30.7093 31.6291 28.7882C33.5969 25.2414 34.9593 21.5468 36.7758 18C40.7115 25.6847 44.0416 33.0739 49.3396 39.8719C50.702 41.6453 55.2431 46.67 55.8486 47.8523L56 48Z" fill="#CDD7D3"/>
</svg>
